<?xml version="1.0" standalone="no"?>
<!DOCTYPE svg PUBLIC "-//W3C//DTD SVG 20010904//EN"
 "http://www.w3.org/TR/2001/REC-SVG-20010904/DTD/svg10.dtd">
<svg version="1.0" xmlns="http://www.w3.org/2000/svg"
 width="195.000000pt" height="195.000000pt" viewBox="0 0 195.000000 195.000000"
 preserveAspectRatio="xMidYMid meet">
<metadata>
Created by potrace 1.11, written by Peter Selinger 2001-2013
</metadata>
<g transform="translate(0.000000,195.000000) scale(0.100000,-0.100000)"
fill="#000000" stroke="none">
<path d="M850 1935 c-61 -17 -98 -32 -129 -54 -14 -10 -42 -21 -62 -25 -56
-10 -67 -29 -34 -62 17 -17 27 -38 28 -61 2 -34 -2 -38 -68 -79 -38 -24 -74
-43 -80 -43 -5 -1 -5 3 1 7 13 8 3 42 -17 59 -40 32 -139 9 -124 -29 8 -20 71
-52 85 -43 6 3 10 -1 10 -9 0 -9 -21 -39 -47 -68 -124 -137 -197 -280 -218
-428 -4 -25 -9 -57 -11 -72 -2 -15 0 -29 6 -33 10 -6 16 15 24 85 7 66 43 175
82 250 36 69 132 195 142 186 3 -3 -2 -14 -11 -24 -34 -37 -6 -149 34 -137 21
7 38 -59 42 -161 2 -64 5 -74 35 -108 36 -42 38 -49 17 -66 -21 -17 -19 -29 8
-41 19 -8 22 -16 19 -49 -2 -21 3 -60 11 -87 9 -26 19 -68 23 -92 5 -34 16
-55 46 -84 29 -29 37 -44 32 -59 -5 -18 -3 -20 14 -15 12 3 26 -1 33 -10 17
-20 62 -41 76 -36 14 5 97 -23 128 -44 27 -18 69 -16 108 4 18 9 46 19 64 23
29 7 36 4 67 -34 20 -22 55 -63 80 -90 37 -42 43 -54 39 -81 -6 -36 28 -84 62
-89 44 -7 125 63 125 107 0 29 -45 77 -71 77 -11 0 -29 -5 -40 -11 -17 -9 -31
1 -104 72 l-85 83 30 19 c16 10 30 27 30 36 0 10 10 26 21 37 36 32 101 134
103 162 1 15 7 43 14 62 6 19 10 42 8 50 -19 95 -20 90 11 133 17 23 38 56 47
74 19 37 27 124 16 164 -5 16 -7 29 -5 29 2 0 17 -13 33 -30 23 -23 39 -30 69
-30 53 0 66 15 47 51 -20 40 -71 49 -135 24 -10 -4 -16 0 -16 10 0 10 10 15
32 15 17 0 40 6 50 14 18 13 18 15 2 39 -9 14 -26 28 -37 32 -21 7 -26 20 -10
30 15 9 87 -90 130 -179 55 -114 72 -184 76 -311 5 -184 -41 -332 -146 -471
-28 -36 -49 -71 -47 -77 3 -10 39 24 71 69 13 17 16 17 33 3 32 -29 67 -31
104 -6 49 33 49 54 -1 67 -33 9 -47 8 -70 -4 -33 -16 -37 -11 -15 21 22 32 72
167 80 215 15 100 13 97 49 91 44 -7 74 11 92 52 20 48 18 55 -16 55 -40 0
-80 -27 -95 -63 -11 -26 -13 -19 -17 75 -9 169 -77 338 -185 458 -46 52 -50
60 -30 60 18 0 43 29 50 59 7 29 -28 104 -46 99 -7 -3 -19 -18 -28 -35 -19
-38 -45 -29 -41 14 3 29 -32 93 -56 101 -7 2 -18 -11 -26 -29 -13 -31 -11 -52
9 -102 7 -18 5 -17 -34 2 -45 24 -48 28 -26 57 28 37 19 81 -28 128 -99 99
-285 142 -437 101z m266 -30 c28 -8 73 -29 100 -47 l49 -33 3 -146 3 -147 -48
-11 c-153 -35 -304 -35 -485 2 l-58 11 0 138 c0 139 0 139 28 165 84 79 264
109 408 68z m-456 -85 c-6 -11 -15 -18 -21 -15 -15 10 -11 23 9 28 9 3 18 5
20 6 1 0 -2 -8 -8 -19z m650 -65 c0 -14 -4 -25 -8 -25 -4 0 -8 11 -8 25 0 14
4 25 8 25 4 0 8 -11 8 -25z m105 -31 c17 -26 14 -74 -5 -74 -15 0 -30 36 -30
69 0 38 12 39 35 5z m-934 -70 c14 -17 10 -22 -22 -27 -26 -4 -69 11 -69 25 0
12 41 26 62 20 9 -2 23 -11 29 -18z m1063 -36 c6 -33 -27 -70 -38 -43 -8 21
-8 59 0 80 6 14 9 14 20 3 7 -7 15 -25 18 -40z m-917 10 c-42 -40 -44 -41 -64
-30 -13 8 -8 14 28 36 60 36 77 33 36 -6z m697 6 c9 -3 16 -10 16 -14 0 -10
-38 -1 -46 11 -6 10 7 12 30 3z m144 -33 c15 -30 -1 -181 -19 -181 -5 0 -9 18
-9 39 0 22 -4 43 -10 46 -5 3 -10 1 -10 -4 0 -6 -9 -11 -21 -11 -11 0 -32 -9
-46 -20 -33 -26 -47 -26 -33 0 13 25 4 46 -14 31 -8 -7 -11 -3 -11 14 2 32 20
52 78 85 51 29 82 29 95 1z m-815 -34 c-6 -30 -20 -31 -37 -4 -8 12 -5 21 9
37 23 25 36 10 28 -33z m667 29 c0 -3 -4 -8 -10 -11 -5 -3 -10 -1 -10 4 0 6 5
11 10 11 6 0 10 -2 10 -4z m-777 -18 c40 -21 105 -78 110 -98 7 -29 -4 -33
-29 -9 -12 11 -24 16 -28 11 -9 -14 -66 -2 -66 15 0 8 -6 13 -12 10 -19 -6
-10 -130 12 -180 10 -23 16 -45 13 -50 -2 -4 -2 -15 1 -24 6 -15 8 -15 19 0
11 14 15 14 40 -7 38 -31 28 -60 -19 -53 -22 4 -37 1 -45 -9 -13 -16 -15 -15
36 -19 33 -3 44 2 62 23 25 30 38 25 29 -11 -3 -15 -16 -27 -31 -31 -32 -8
-50 -40 -31 -55 7 -6 11 -22 8 -36 -5 -29 -22 -34 -22 -7 0 11 -9 27 -21 38
-34 31 -42 54 -44 134 -1 50 -10 101 -28 155 -34 101 -39 142 -22 183 15 34
32 39 68 20z m252 -89 c138 -22 382 -14 458 16 15 6 17 1 17 -48 0 -61 -6 -69
-65 -87 -59 -18 -336 -22 -415 -7 -101 20 -110 28 -110 93 0 53 1 56 23 51 12
-3 54 -11 92 -18z m-348 -31 c0 -7 3 -29 7 -48 7 -33 6 -34 -9 -16 -15 20 -20
57 -8 69 9 9 10 9 10 -5z m973 -47 c0 -38 -11 -72 -22 -69 -5 2 -26 -13 -47
-32 -81 -77 -201 -114 -371 -113 -149 0 -254 27 -328 84 -55 41 -62 44 -62 30
0 -20 84 -74 148 -97 37 -13 60 -24 50 -24 -37 0 -128 44 -176 86 -60 53 -92
120 -74 159 l11 25 47 -25 c26 -14 57 -36 69 -49 12 -13 40 -29 61 -36 113
-32 395 -31 507 2 37 11 71 43 61 59 -2 4 8 10 23 14 16 3 39 14 53 25 23 18
26 18 38 3 6 -9 12 -28 12 -42z m108 6 c16 -13 -2 -27 -35 -27 -26 0 -27 3
-12 31 10 19 18 18 47 -4z m-79 -168 c1 -52 -13 -101 -41 -141 -23 -33 -38
-36 -38 -9 0 11 -15 28 -35 41 -55 34 -60 53 -19 75 38 20 113 97 115 117 2
29 17 -40 18 -83z m132 81 c29 -16 24 -40 -9 -40 -31 0 -75 27 -67 41 8 12 52
12 76 -1z m-221 -51 c-36 -31 -84 -61 -65 -41 14 15 89 71 95 71 3 0 -11 -13
-30 -30z m-90 -58 c-49 -29 -245 -68 -255 -51 -3 4 28 10 68 13 40 3 97 14
127 25 59 22 85 27 60 13z m-427 -38 c-7 -2 -19 -2 -25 0 -7 3 -2 5 12 5 14 0
19 -2 13 -5z m65 -10 c-10 -2 -26 -2 -35 0 -10 3 -2 5 17 5 19 0 27 -2 18 -5z
m37 -43 c9 -8 15 -8 20 0 11 18 22 2 19 -27 -4 -38 -6 -84 -5 -106 2 -33 25
-12 26 24 4 117 4 119 26 119 20 0 21 -4 16 -76 -4 -72 -3 -77 22 -100 14 -13
28 -24 31 -24 3 0 14 -15 25 -32 10 -18 36 -55 57 -81 21 -27 38 -53 38 -58 0
-5 9 -18 20 -29 24 -24 26 -53 5 -70 -8 -7 -15 -20 -15 -29 0 -50 -61 -54
-133 -8 -28 19 -64 41 -79 50 -16 10 -25 24 -23 34 1 10 -2 24 -8 31 -7 9 -6
11 6 6 18 -6 57 28 57 51 0 8 4 15 9 15 14 0 18 32 7 58 -8 18 -16 22 -51 20
-23 0 -46 1 -51 4 -17 10 -54 -11 -64 -37 -8 -21 -5 -33 15 -65 14 -22 32 -40
40 -40 10 0 15 -10 14 -32 0 -28 -11 -43 -70 -95 -38 -35 -77 -63 -87 -63 -9
0 -36 17 -59 38 -34 30 -43 45 -46 77 -3 43 -19 51 -27 14 -5 -20 -7 -19 -22
12 -14 29 -33 98 -54 194 -2 11 -1 28 2 38 5 16 9 14 29 -15 31 -46 65 -67
124 -76 l49 -7 -37 -79 c-48 -100 -41 -142 27 -159 32 -8 27 15 -8 35 -36 21
-37 34 -5 94 14 26 25 52 25 59 0 6 29 40 64 73 63 61 66 62 119 62 50 0 57
-3 83 -34 16 -19 49 -69 73 -111 44 -77 48 -102 26 -157 -13 -32 15 -19 29 13
19 45 11 85 -32 153 -21 34 -45 75 -54 91 -29 52 -62 70 -128 68 l-58 -2 7 27
c4 15 6 34 6 42 -1 8 -3 24 -3 36 -1 12 -13 37 -26 57 -23 34 -23 35 -4 32 11
-2 26 -9 33 -15z m-93 -16 c49 -44 58 -123 19 -170 -25 -31 -55 -44 -101 -44
-34 0 -48 6 -76 34 -33 33 -39 52 -34 106 3 37 17 59 53 81 39 24 107 21 139
-7z m-212 2 c0 -3 -4 -8 -10 -11 -5 -3 -10 -1 -10 4 0 6 5 11 10 11 6 0 10 -2
10 -4z m583 -64 c6 -12 22 -25 35 -29 l24 -6 -31 -24 c-18 -15 -35 -40 -41
-64 -6 -21 -15 -39 -21 -39 -6 0 -8 4 -4 10 10 16 -21 75 -51 98 -22 16 -25
21 -12 22 24 0 56 37 64 74 l7 31 10 -25 c5 -14 14 -35 20 -48z m610 -94 c-19
-33 -73 -53 -73 -28 0 19 48 60 70 60 22 0 22 0 3 -32z m-785 -100 c4 -21 -27
-32 -34 -13 -4 8 -9 15 -13 15 -8 0 -31 -50 -31 -68 0 -11 -3 -12 -14 -3 -13
11 -12 15 6 33 14 14 17 23 9 31 -8 8 -15 6 -25 -9 -14 -18 -15 -18 -22 0 -10
25 5 32 68 30 39 0 54 -4 56 -16z m-32 -49 c3 -6 2 -15 -4 -21 -6 -6 -11 -2
-15 11 -5 22 7 29 19 10z m8 -160 c35 -16 116 -86 104 -90 -2 0 -14 -3 -28 -5
-13 -2 -39 -13 -58 -24 -42 -25 -37 -25 -112 8 l-62 29 52 51 c29 29 54 52 56
52 3 0 24 -9 48 -21z m191 -133 c38 -36 62 -66 56 -70 -9 -6 -62 45 -112 107
-33 43 -16 32 56 -37z m514 38 c2 -2 -1 -10 -8 -18 -16 -19 -58 -26 -77 -11
-15 11 -15 13 7 29 21 15 63 15 78 0z"/>
<path d="M1398 1240 c-9 -17 -24 -30 -33 -30 -8 0 -15 -4 -15 -10 0 -17 39
-11 60 10 19 19 28 60 13 60 -5 0 -16 -14 -25 -30z"/>
<path d="M962 599 c-12 -4 -29 -6 -37 -3 -9 4 -15 0 -15 -9 0 -20 19 -26 50
-15 14 5 43 7 66 3 30 -4 44 -2 54 10 7 8 11 15 9 15 -58 7 -109 6 -127 -1z"/>
<path d="M960 544 c15 -17 61 -15 68 4 2 8 -9 12 -38 12 -37 0 -41 -2 -30 -16z"/>
<path d="M513 1773 c-29 -6 -29 -23 -2 -52 28 -30 61 -41 96 -32 34 9 40 30
16 60 -18 22 -68 33 -110 24z m87 -35 l24 -22 -25 -7 c-27 -7 -79 15 -79 34 0
22 54 19 80 -5z"/>
<path d="M288 1582 c-46 -28 -30 -58 36 -69 26 -4 44 0 67 15 l32 20 -26 26
c-30 30 -69 33 -109 8z m91 -16 c22 -27 -45 -48 -79 -26 -13 9 -12 12 4 25 25
19 60 19 75 1z"/>
<path d="M1614 1572 c-33 -26 -46 -58 -38 -97 7 -41 16 -49 45 -40 42 14 53
84 22 139 -7 13 -11 13 -29 -2z m28 -52 c3 -21 -2 -37 -15 -51 -20 -22 -21
-22 -28 -2 -9 25 -7 41 9 71 16 28 28 22 34 -18z"/>
<path d="M198 1451 c-40 -36 -31 -51 34 -58 35 -3 49 0 73 20 30 25 30 25 11
46 -28 31 -78 28 -118 -8z m98 -3 c10 -15 -24 -38 -56 -38 -36 0 -43 10 -23
32 18 20 68 24 79 6z"/>
<path d="M1686 1431 c-20 -21 -28 -39 -28 -66 0 -50 15 -64 50 -45 34 19 51
77 34 115 -15 32 -22 31 -56 -4z m40 -16 c9 -23 -4 -63 -25 -74 -26 -14 -33
17 -14 58 17 34 30 39 39 16z"/>
<path d="M355 1400 c-22 -36 -23 -70 -1 -102 28 -43 53 -47 66 -13 15 40 12
70 -11 99 -21 27 -43 33 -54 16z m55 -74 c0 -11 -4 -27 -9 -35 -7 -10 -12 -8
-25 10 -17 24 -22 70 -9 83 11 11 43 -33 43 -58z"/>
<path d="M145 1338 c-11 -6 -27 -21 -37 -32 -24 -30 -50 -119 -46 -158 5 -40
13 -25 28 55 12 58 12 58 44 54 44 -6 93 16 108 48 10 22 9 28 -3 36 -20 12
-70 11 -94 -3z m80 -18 c3 -5 -5 -16 -18 -25 -53 -35 -106 -24 -66 14 23 22
73 29 84 11z"/>
<path d="M1774 1310 c-33 -13 -64 -59 -64 -96 0 -29 3 -34 24 -34 40 0 67 31
73 82 6 50 -1 60 -33 48z m16 -43 c0 -28 -26 -67 -46 -67 -21 0 -17 41 8 67
27 29 38 29 38 0z"/>
<path d="M296 1294 c-15 -38 -6 -85 21 -112 15 -15 27 -29 26 -32 0 -3 -3 -24
-7 -47 -6 -47 10 -60 19 -15 3 15 10 43 15 63 16 60 12 95 -16 128 -28 34 -49
39 -58 15z m50 -31 c14 -19 19 -65 7 -76 -13 -14 -43 27 -43 60 0 36 15 43 36
16z"/>
<path d="M1538 1243 c-26 -7 -22 -21 17 -60 35 -35 42 -45 28 -40 -5 1 -9 -1
-10 -5 -8 -23 0 -48 22 -71 50 -49 115 -36 94 20 -12 33 -37 52 -69 54 -21 1
-20 2 8 9 44 10 47 14 33 48 -18 43 -66 60 -123 45z m92 -35 c28 -30 11 -43
-34 -28 -20 6 -36 13 -36 15 0 2 -3 10 -6 19 -10 26 51 21 76 -6z m25 -100 c1
-2 8 -13 14 -25 11 -21 9 -23 -12 -23 -26 0 -67 33 -67 55 0 11 7 12 31 5 18
-5 33 -11 34 -12z"/>
<path d="M1804 1165 c-17 -7 -39 -23 -48 -36 -19 -28 -21 -79 -3 -80 55 -5 86
21 94 78 6 48 -2 56 -43 38z m26 -33 c0 -27 -29 -62 -51 -62 -26 0 -24 26 6
55 29 29 45 32 45 7z"/>
<path d="M1583 993 c8 -47 48 -85 86 -81 26 3 28 8 22 66 -1 17 -61 52 -90 52
-22 0 -23 -3 -18 -37z m75 -7 c19 -19 24 -56 6 -56 -20 0 -64 45 -64 65 0 12
6 15 23 10 12 -4 28 -13 35 -19z"/>
<path d="M511 986 c-8 -9 -11 -19 -7 -23 9 -9 29 13 24 27 -2 8 -8 7 -17 -4z"/>
<path d="M495 931 c-6 -11 9 -23 19 -14 9 9 7 23 -3 23 -6 0 -12 -4 -16 -9z"/>
<path d="M1573 914 c-12 -32 11 -88 46 -111 37 -25 45 -22 54 17 9 35 -23 85
-63 98 -26 9 -32 9 -37 -4z m62 -39 c28 -27 29 -33 15 -55 -9 -13 -14 -11 -35
13 -25 29 -34 67 -15 67 6 0 22 -11 35 -25z"/>
<path d="M497 893 c-7 -11 10 -40 18 -31 4 4 3 14 -3 24 -5 9 -12 12 -15 7z"/>
<path d="M159 851 c-56 -56 -30 -163 44 -175 23 -4 27 -1 27 17 0 13 -9 26
-22 32 -13 6 -27 22 -32 38 -19 53 54 95 92 54 22 -23 22 -23 22 -62 0 -38 36
-34 42 5 15 99 -103 161 -173 91z"/>
<path d="M1772 857 c-30 -16 -57 -60 -49 -81 7 -18 48 -21 78 -6 21 12 49 60
49 85 0 19 -45 20 -78 2z m51 -24 c-11 -31 -35 -53 -60 -53 -30 0 -29 15 2 45
29 30 68 34 58 8z"/>
<path d="M494 824 c3 -9 6 -19 6 -22 0 -9 20 21 20 31 0 4 -7 7 -16 7 -11 0
-14 -5 -10 -16z"/>
<path d="M1556 804 c-15 -39 -6 -82 25 -115 l31 -33 20 24 c27 33 17 77 -24
113 -37 31 -44 33 -52 11z m64 -55 c12 -21 5 -59 -10 -59 -16 0 -40 44 -40 73
0 24 2 26 20 17 11 -6 24 -20 30 -31z"/>
<path d="M500 776 c0 -8 5 -18 10 -21 6 -3 10 3 10 14 0 12 -4 21 -10 21 -5 0
-10 -6 -10 -14z"/>
<path d="M514 724 c3 -9 6 -18 6 -20 0 -3 4 -3 10 1 11 7 2 35 -12 35 -6 0 -7
-7 -4 -16z"/>
<path d="M1753 723 c-25 -5 -73 -50 -73 -69 0 -20 38 -36 70 -29 17 4 39 19
50 35 21 29 27 60 11 60 -5 0 -15 2 -23 4 -7 2 -23 1 -35 -1z m36 -44 c-13
-25 -52 -44 -73 -36 -22 9 -10 33 26 50 40 19 62 13 47 -14z"/>
<path d="M306 662 c-68 -56 -89 -82 -66 -82 6 0 8 -4 5 -10 -12 -19 14 -10 45
16 l31 27 22 -21 21 -22 -34 -35 c-31 -32 -33 -37 -19 -51 14 -14 22 -10 80
38 94 77 90 73 74 94 -13 18 -14 18 -32 1 -26 -23 -38 -22 -56 7 -15 23 -15
25 8 40 22 14 23 19 13 36 -7 11 -15 20 -18 20 -3 -1 -36 -27 -74 -58z"/>
<path d="M1510 691 c-24 -45 6 -131 45 -131 39 0 46 82 11 123 -28 32 -42 34
-56 8z m60 -66 c0 -11 -4 -26 -9 -34 -7 -10 -12 -8 -25 10 -17 25 -20 47 -9
74 5 15 8 15 24 -6 10 -13 19 -33 19 -44z"/>
<path d="M532 678 c2 -6 10 -14 16 -16 7 -2 10 2 6 12 -7 18 -28 22 -22 4z"/>
<path d="M556 641 c-3 -5 1 -14 9 -21 12 -10 15 -10 15 3 0 19 -16 31 -24 18z"/>
<path d="M595 600 c3 -5 13 -10 21 -10 8 0 12 5 9 10 -3 6 -13 10 -21 10 -8 0
-12 -4 -9 -10z"/>
<path d="M645 590 c-3 -5 3 -10 15 -10 12 0 18 5 15 10 -3 6 -10 10 -15 10 -5
0 -12 -4 -15 -10z"/>
<path d="M515 513 c-124 -63 -156 -85 -144 -99 13 -15 49 -19 49 -5 0 14 34 8
47 -9 7 -9 10 -28 7 -47 -5 -25 -2 -34 14 -42 17 -9 21 -7 28 17 10 35 9 32
22 65 7 15 15 40 18 55 4 15 11 32 15 38 6 7 2 17 -9 27 -15 14 -20 14 -47 0z
m-5 -67 c0 -3 -4 -8 -10 -11 -5 -3 -10 -1 -10 4 0 6 5 11 10 11 6 0 10 -2 10
-4z"/>
<path d="M600 370 c-22 -44 -40 -84 -40 -90 0 -18 74 -48 113 -45 47 3 77 30
84 78 6 48 -19 92 -67 117 -21 11 -42 20 -44 20 -3 0 -24 -36 -46 -80z m120
-38 c0 -4 -7 -18 -16 -30 -21 -30 -79 -28 -79 3 0 11 5 26 12 33 7 8 11 18 8
23 -4 5 -1 9 4 9 6 0 11 7 11 16 0 12 8 8 30 -14 17 -18 30 -35 30 -40z"/>
<path d="M1152 371 c-9 -5 -12 -30 -10 -76 2 -55 -1 -70 -14 -79 -14 -8 -22
-6 -38 12 -12 12 -25 20 -31 17 -15 -10 -10 -41 9 -57 21 -19 82 -32 82 -17 0
6 5 7 10 4 6 -3 10 1 10 10 0 10 5 13 12 9 6 -4 8 -3 4 4 -3 6 -3 13 2 16 5 3
8 37 7 76 -1 73 -14 99 -43 81z"/>
<path d="M870 355 c-7 -8 -10 -26 -8 -40 3 -16 -1 -30 -13 -41 -50 -46 3 -118
68 -93 19 7 29 7 31 0 4 -11 42 -16 42 -5 0 3 -5 15 -11 26 -8 14 -8 23 0 31
16 16 -7 41 -25 26 -21 -18 -29 15 -10 43 14 22 14 26 0 46 -17 25 -56 29 -74
7z m50 -24 c0 -6 -4 -13 -10 -16 -5 -3 -10 1 -10 9 0 9 5 16 10 16 6 0 10 -4
10 -9z m-10 -107 c0 -18 -36 -18 -43 0 -8 20 13 38 30 25 7 -7 13 -18 13 -25z"/>
<path d="M541 52 c-12 -23 4 -52 29 -52 27 0 25 16 -2 24 l-23 6 25 20 c25 19
25 20 3 20 -12 0 -27 -8 -32 -18z"/>
<path d="M612 35 c2 -35 12 -46 21 -22 4 9 6 9 6 0 2 -29 18 -10 19 22 1 31
-1 35 -24 35 -22 0 -24 -4 -22 -35z"/>
<path d="M700 46 c-15 -39 -13 -43 19 -43 27 0 28 2 18 26 -18 42 -26 46 -37
17z"/>
<path d="M770 35 c0 -19 5 -35 10 -35 6 0 10 7 10 15 0 8 5 15 11 15 8 0 8 4
0 14 -9 11 -9 15 1 19 7 3 3 6 -9 6 -20 1 -23 -4 -23 -34z"/>
<path d="M830 61 c0 -6 4 -12 9 -16 6 -3 8 -15 6 -26 -3 -13 0 -19 8 -16 7 2
11 14 9 25 -2 12 2 22 7 22 6 0 11 5 11 10 0 6 -11 10 -25 10 -14 0 -25 -4
-25 -9z"/>
<path d="M950 35 c0 -28 3 -32 25 -32 25 0 34 12 14 19 -9 3 -9 9 -1 25 10 18
9 21 -13 21 -21 0 -25 -5 -25 -33z"/>
<path d="M1027 63 c-6 -11 -2 -51 6 -59 4 -4 7 -3 8 2 5 48 5 64 -2 64 -4 0
-10 -3 -12 -7z"/>
<path d="M1070 61 c0 -6 5 -13 10 -16 6 -4 9 -14 8 -22 -2 -9 3 -18 10 -20 9
-4 11 2 6 21 -4 16 -2 26 5 26 6 0 11 5 11 10 0 6 -11 10 -25 10 -14 0 -25 -4
-25 -9z"/>
<path d="M1147 63 c-13 -12 -7 -51 9 -57 23 -9 34 -7 34 4 0 6 -7 10 -16 10
-10 0 -14 7 -12 17 2 10 10 17 16 15 7 -1 12 2 12 8 0 11 -33 14 -43 3z"/>
<path d="M1220 35 c0 -36 15 -48 23 -17 4 16 5 16 6 0 2 -34 21 -18 21 17 0
34 -13 47 -23 23 -4 -10 -6 -10 -6 0 -2 29 -21 9 -21 -23z"/>
<path d="M1300 35 c0 -29 4 -35 21 -35 18 0 19 2 9 15 -10 12 -10 15 1 15 11
0 11 2 -1 10 -10 6 -11 10 -2 10 6 0 12 5 12 10 0 6 -9 10 -20 10 -16 0 -20
-7 -20 -35z"/>
<path d="M1369 69 c-7 -24 -4 -69 5 -66 6 3 10 11 8 18 -2 9 4 7 17 -5 21 -19
21 -19 21 17 0 21 -4 37 -10 37 -5 0 -10 -5 -10 -11 0 -8 -5 -8 -15 1 -8 7
-16 11 -16 9z"/>
<path d="M430 40 c0 -23 25 -27 33 -6 7 16 -1 26 -20 26 -7 0 -13 -9 -13 -20z"/>
<path d="M1484 49 c-10 -17 13 -36 27 -22 12 12 4 33 -11 33 -5 0 -12 -5 -16
-11z"/>
</g>
</svg>
